<svg width="30" height="30" viewBox="0 0 30 30" fill="none" xmlns="http://www.w3.org/2000/svg">
<path d="M15 0C6.74719 0 0 6.74719 0 15C0 23.2528 6.74719 30 15 30C23.2528 30 30 23.2528 30 15C30 6.74719 23.325 0 15 0ZM21.9 21.675C21.6009 22.1241 21.0741 22.275 20.625 21.9722C17.1 19.8 12.6759 19.35 7.42219 20.5472C6.9 20.7019 6.45 20.3269 6.29812 19.8722C6.15188 19.35 6.52312 18.9009 6.97219 18.75C12.6759 17.475 17.6269 17.9972 21.5231 20.4C22.0509 20.625 22.1231 21.225 21.8991 21.675H21.9ZM23.7009 17.5491C23.325 18.0769 22.6509 18.3019 22.1231 17.925C18.0759 15.4491 11.9231 14.7028 7.20188 16.2009C6.60094 16.3472 5.92219 16.05 5.77594 15.4481C5.625 14.8481 5.92219 14.1741 6.52313 14.0231C12.0019 12.3722 18.7491 13.2019 23.3981 16.0491C23.8519 16.2741 24.0769 17.025 23.7009 17.5481V17.5491ZM23.8528 13.35C19.0481 10.4972 11.025 10.2 6.45 11.6259C5.69906 11.85 4.95094 11.4009 4.72594 10.7222C4.50187 9.975 4.95094 9.22312 5.625 8.99813C10.9528 7.42219 19.7259 7.72406 25.2788 11.0241C25.9528 11.4 26.1759 12.2991 25.8009 12.9731C25.425 13.5009 24.5259 13.7241 23.8519 13.3491L23.8528 13.35Z" fill="black"/>
</svg>
