<svg width="15" height="15" viewBox="0 0 15 15" fill="none" xmlns="http://www.w3.org/2000/svg">
<g clip-path="url(#clip0_451_438)">
<path fill-rule="evenodd" clip-rule="evenodd" d="M7.36354 0.0898438C3.35501 0.0898438 0.105469 3.33939 0.105469 7.34792C0.105469 11.3564 3.35501 14.606 7.36354 14.606C11.3721 14.606 14.6216 11.3564 14.6216 7.34792C14.6216 3.33939 11.3721 0.0898438 7.36354 0.0898438ZM8.68901 3.6887C9.36072 3.80491 10.0139 4.01018 10.6313 4.29907V4.29903C11.6969 5.8903 12.2263 7.68508 12.0309 9.75513C11.2155 10.3647 10.4247 10.7346 9.64722 10.9766C9.45468 10.7126 9.28436 10.4312 9.13702 10.1363C9.41646 10.03 9.68583 9.89888 9.9419 9.74453C9.87493 9.6943 9.80927 9.64234 9.74496 9.58868C8.21433 10.3133 6.53119 10.3133 4.98212 9.58868C4.9181 9.64267 4.8524 9.69464 4.78514 9.74453C5.04077 9.8985 5.30965 10.0293 5.58856 10.1355C5.44204 10.4293 5.27138 10.7103 5.07836 10.9758C4.30157 10.7338 3.51148 10.3639 2.69619 9.75513C2.5296 7.9694 2.86282 6.15808 4.09203 4.30057C4.70974 4.01076 5.36346 3.80497 6.0358 3.6887C6.12023 3.83995 6.2202 4.04344 6.2876 4.20525C6.99846 4.09636 7.71599 4.09636 8.4402 4.20525C8.5076 4.0434 8.60535 3.83995 8.68901 3.6887ZM4.95319 7.69413C4.95319 8.2228 5.33457 8.65693 5.79962 8.65693C6.2728 8.65693 6.64673 8.2228 6.64601 7.69413C6.65414 7.16472 6.2728 6.73059 5.79962 6.73059C5.32644 6.73059 4.95319 7.1655 4.95319 7.69413ZM8.08107 7.69413C8.08107 8.2228 8.46241 8.65693 8.92741 8.65693C9.40064 8.65693 9.77385 8.2228 9.77385 7.69413C9.78198 7.16472 9.40064 6.73059 8.92741 6.73059C8.45428 6.73059 8.08107 7.1655 8.08107 7.69413Z" fill="white"/>
</g>
<defs>
<clipPath id="clip0_451_438">
<rect width="15" height="15" fill="white"/>
</clipPath>
</defs>
</svg>
