<svg width="16" height="15" viewBox="0 0 16 15" fill="none" xmlns="http://www.w3.org/2000/svg">
<path d="M8.76099 7.36953L7.00457 6.55078C6.85129 6.47969 6.72539 6.55937 6.72539 6.72891V8.27109C6.72539 8.44063 6.85129 8.52031 7.00457 8.44922L8.76021 7.63047C8.91427 7.55859 8.91427 7.44141 8.76099 7.36953ZM7.50741 0C3.36113 0 0 3.35781 0 7.5C0 11.6422 3.36113 15 7.50741 15C11.6537 15 15.0148 11.6422 15.0148 7.5C15.0148 3.35781 11.6537 0 7.50741 0ZM7.50741 10.5469C3.66455 10.5469 3.5973 10.2008 3.5973 7.5C3.5973 4.79922 3.66455 4.45312 7.50741 4.45312C11.3503 4.45312 11.4175 4.79922 11.4175 7.5C11.4175 10.2008 11.3503 10.5469 7.50741 10.5469Z" fill="white"/>
</svg>
