<svg width="31" height="31" viewBox="0 0 31 31" fill="none" xmlns="http://www.w3.org/2000/svg">
<path fill-rule="evenodd" clip-rule="evenodd" d="M15.2173 0.184082C6.93301 0.184082 0.217285 6.89981 0.217285 15.1841C0.217285 23.4684 6.93301 30.1841 15.2173 30.1841C23.5016 30.1841 30.2173 23.4684 30.2173 15.1841C30.2173 6.89981 23.5016 0.184082 15.2173 0.184082ZM17.9566 7.62171C19.3448 7.86189 20.6947 8.28611 21.9707 8.88314V8.88306C24.1729 12.1717 25.2671 15.8809 24.8631 20.159C23.1781 21.4188 21.5438 22.1832 19.9369 22.6833C19.539 22.1377 19.187 21.5563 18.8825 20.9467C19.46 20.7271 20.0167 20.4561 20.5459 20.1371C20.4075 20.0333 20.2718 19.9259 20.1389 19.815C16.9756 21.3125 13.4971 21.3125 10.2957 19.815C10.1634 19.9266 10.0276 20.034 9.88861 20.1371C10.4169 20.4553 10.9726 20.7257 11.549 20.9451C11.2462 21.5522 10.8935 22.1331 10.4946 22.6817C8.88923 22.1816 7.25637 21.4172 5.57145 20.159C5.22715 16.4685 5.91582 12.7251 8.45617 8.88626C9.73277 8.2873 11.0838 7.862 12.4733 7.62171C12.6478 7.93431 12.8544 8.35484 12.9937 8.68925C14.4628 8.46421 15.9457 8.46421 17.4424 8.68925C17.5817 8.35476 17.7837 7.93431 17.9566 7.62171ZM10.2359 15.8996C10.2359 16.9922 11.0241 17.8894 11.9852 17.8894C12.9631 17.8894 13.7359 16.9922 13.7344 15.8996C13.7512 14.8055 12.9631 13.9083 11.9852 13.9083C11.0073 13.9083 10.2359 14.8071 10.2359 15.8996ZM16.7002 15.8996C16.7002 16.9922 17.4883 17.8894 18.4493 17.8894C19.4273 17.8894 20.1986 16.9922 20.1986 15.8996C20.2154 14.8055 19.4273 13.9083 18.4493 13.9083C17.4715 13.9083 16.7002 14.8071 16.7002 15.8996Z" fill="black"/>
</svg>
