<svg width="22" height="22" viewBox="0 0 22 22" fill="none" xmlns="http://www.w3.org/2000/svg">
<path d="M6.875 2.75V6.1875C6.875 6.73451 7.0923 7.25911 7.47909 7.64591C7.86589 8.0327 8.39049 8.25 8.9375 8.25H11.6875C12.2345 8.25 12.7591 8.0327 13.1459 7.64591C13.5327 7.25911 13.75 6.73451 13.75 6.1875V2.75H14.2711C15.0004 2.75016 15.6998 3.03999 16.2154 3.55575L18.4442 5.78462C18.96 6.30023 19.2498 6.99959 19.25 7.72887V16.5C19.25 17.2293 18.9603 17.9288 18.4445 18.4445C17.9288 18.9603 17.2293 19.25 16.5 19.25V13.0625C16.5 12.5155 16.2827 11.9909 15.8959 11.6041C15.5091 11.2173 14.9845 11 14.4375 11H7.5625C6.42537 11 5.5 11.9199 5.5 13.0598V19.25C4.77065 19.25 4.07118 18.9603 3.55546 18.4445C3.03973 17.9288 2.75 17.2293 2.75 16.5V5.5C2.75 4.77065 3.03973 4.07118 3.55546 3.55546C4.07118 3.03973 4.77065 2.75 5.5 2.75H6.875ZM8.25 2.75V6.1875C8.25 6.36984 8.32243 6.5447 8.45136 6.67364C8.5803 6.80257 8.75516 6.875 8.9375 6.875H11.6875C11.8698 6.875 12.0447 6.80257 12.1736 6.67364C12.3026 6.5447 12.375 6.36984 12.375 6.1875V2.75H8.25ZM6.875 19.25H15.125V13.0625C15.125 12.8802 15.0526 12.7053 14.9236 12.5764C14.7947 12.4474 14.6198 12.375 14.4375 12.375H7.5625C7.18162 12.375 6.875 12.6816 6.875 13.0598V19.25Z" fill="white"/>
</svg>
