<svg width="22" height="22" viewBox="0 0 22 22" fill="none" xmlns="http://www.w3.org/2000/svg">
<path d="M8.24996 7.33366H13.75V5.50033C13.75 4.73644 13.4826 4.08713 12.9479 3.55241C12.4132 3.01769 11.7638 2.75033 11 2.75033C10.2361 2.75033 9.58677 3.01769 9.05204 3.55241C8.51732 4.08713 8.24996 4.73644 8.24996 5.50033V7.33366ZM16.5 21.0837C15.2319 21.0837 14.1508 20.6366 13.2568 19.7426C12.3627 18.8485 11.916 17.7678 11.9166 16.5003C11.9166 15.2323 12.3637 14.1512 13.2577 13.2572C14.1518 12.3631 15.2325 11.9164 16.5 11.917C17.768 11.917 18.8491 12.364 19.7431 13.2581C20.6372 14.1521 21.0839 15.2329 21.0833 16.5003C21.0833 17.7684 20.6363 18.8494 19.7422 19.7435C18.8482 20.6375 17.7674 21.0843 16.5 21.0837ZM18.0125 18.6545L18.6541 18.0128L16.9583 16.317V13.7503H16.0416V16.6837L18.0125 18.6545ZM11.2291 20.167H5.49996C4.99579 20.167 4.56404 19.9873 4.20471 19.628C3.84538 19.2687 3.66602 18.8372 3.66663 18.3337V9.16699C3.66663 8.66283 3.84629 8.23108 4.20563 7.87174C4.56496 7.51241 4.99641 7.33305 5.49996 7.33366H6.41663V5.50033C6.41663 4.23227 6.86366 3.15121 7.75771 2.25716C8.65177 1.3631 9.73252 0.916382 11 0.916993C12.268 0.916993 13.3491 1.36402 14.2431 2.25808C15.1372 3.15213 15.5839 4.23288 15.5833 5.50033V7.33366H16.5C17.0041 7.33366 17.4359 7.51333 17.7952 7.87266C18.1545 8.23199 18.3339 8.66344 18.3333 9.16699V10.3587C18.0277 10.2517 17.7222 10.179 17.4166 10.1405C17.1111 10.102 16.8055 10.083 16.5 10.0837C14.7125 10.0837 13.196 10.7064 11.9505 11.9518C10.7051 13.1973 10.0827 14.7134 10.0833 16.5003C10.0833 17.1573 10.1866 17.795 10.3931 18.4134C10.5997 19.0319 10.8783 19.6164 11.2291 20.167Z" fill="white"/>
</svg>
