<svg width="22" height="22" viewBox="0 0 22 22" fill="none" xmlns="http://www.w3.org/2000/svg">
<path d="M11 0C4.92491 0 0 4.92499 0 11C0 17.0754 4.92499 22 11 22C17.0755 22 22 17.0754 22 11C22 4.92542 17.0755 0.000601562 10.9998 0.000601562L10.9999 8.59375e-05L11 0ZM16.0444 15.8653C15.8474 16.1884 15.4244 16.2908 15.1013 16.0925C12.5186 14.5149 9.26741 14.1576 5.43847 15.0324C5.26116 15.0728 5.07509 15.0411 4.92116 14.9443C4.76723 14.8475 4.65804 14.6935 4.61759 14.5162C4.59744 14.4285 4.5948 14.3376 4.60982 14.2488C4.62483 14.16 4.65722 14.075 4.70511 13.9988C4.75301 13.9225 4.81547 13.8565 4.88893 13.8044C4.9624 13.7523 5.04541 13.7152 5.13322 13.6953C9.32353 12.7379 12.9177 13.1501 15.8172 14.9221C16.1404 15.1204 16.2428 15.5421 16.0444 15.8653ZM17.3908 12.8701C17.1425 13.2736 16.6145 13.401 16.2113 13.1527C13.2545 11.3353 8.74732 10.809 5.25009 11.8705C4.79652 12.0075 4.3175 11.752 4.17983 11.2991C4.04319 10.8456 4.29894 10.3674 4.75174 10.2296C8.74655 9.01734 13.7129 9.60455 17.1084 11.6911C17.5117 11.9395 17.6391 12.4674 17.3908 12.8701ZM17.5064 9.75116C13.9611 7.64534 8.11198 7.45164 4.72716 8.47911C4.18361 8.64394 3.60877 8.33706 3.44412 7.7935C3.27938 7.24969 3.58591 6.67528 4.1299 6.51002C8.01539 5.33045 14.4748 5.55844 18.5564 7.98153C19.0464 8.27166 19.2066 8.90312 18.9163 9.39134C18.6274 9.88032 17.9942 10.0415 17.5069 9.75116H17.5064Z" fill="white"/>
</svg>
