<svg width="3806" height="1500" viewBox="0 0 3806 1500" fill="none" xmlns="http://www.w3.org/2000/svg">
<path d="M256 1220C186.339 1220 127.094 1195.59 78.2656 1146.76C30.0885 1098.58 6 1039.66 6 970V595H256V1220Z" fill="black" fill-opacity="0.2"/>
<path d="M406 1220V720H531H656V1220H406Z" fill="black" fill-opacity="0.2"/>
<path d="M1056 1470V1220C986.339 1220 927.094 1195.59 878.266 1146.76C830.089 1098.58 806 1039.66 806 970C806 900.99 830.414 842.07 879.242 793.242C927.419 744.414 986.339 720 1056 720C1125.01 720 1183.93 744.74 1232.76 794.219C1281.59 842.396 1306 900.99 1306 970V1220C1306 1289.01 1281.26 1347.93 1231.78 1396.76C1183.6 1445.59 1125.01 1470 1056 1470Z" fill="black" fill-opacity="0.2"/>
<path d="M1456 1220V595H1706V720C1775.01 720 1833.93 744.74 1882.76 794.219C1931.59 842.396 1956 900.99 1956 970V1220H1456Z" fill="black" fill-opacity="0.2"/>
<path d="M2106 1220V720C2106 650.99 2130.41 592.07 2179.24 543.242C2227.42 494.414 2286.34 470 2356 470V1220H2106Z" fill="black" fill-opacity="0.2"/>
<path d="M2506 1470V720C2506 650.99 2530.41 592.07 2579.24 543.242C2627.42 494.414 2686.34 470 2756 470V1220C2756 1289.01 2731.26 1347.93 2681.78 1396.76C2633.6 1445.59 2575.01 1470 2506 1470Z" fill="black" fill-opacity="0.2"/>
<path d="M3156 1220C3086.34 1220 3027.09 1195.59 2978.27 1146.76C2930.09 1098.58 2906 1039.66 2906 970V595H3156V1220Z" fill="black" fill-opacity="0.2"/>
<path d="M3556 1470V1220C3486.34 1220 3427.09 1195.59 3378.27 1146.76C3330.09 1098.58 3306 1039.66 3306 970V720H3806V1220C3806 1289.01 3781.26 1347.93 3731.78 1396.76C3683.6 1445.59 3625.01 1470 3556 1470Z" fill="black" fill-opacity="0.2"/>
<path d="M256 1110C186.339 1110 127.094 1085.59 78.2656 1036.76C30.0885 988.581 6 929.661 6 860V485H256V1110Z" fill="black" fill-opacity="0.3"/>
<path d="M406 1110V610H531H656V1110H406Z" fill="black" fill-opacity="0.3"/>
<path d="M1056 1360V1110C986.339 1110 927.094 1085.59 878.266 1036.76C830.089 988.581 806 929.661 806 860C806 790.99 830.414 732.07 879.242 683.242C927.419 634.414 986.339 610 1056 610C1125.01 610 1183.93 634.74 1232.76 684.219C1281.59 732.396 1306 790.99 1306 860V1110C1306 1179.01 1281.26 1237.93 1231.78 1286.76C1183.6 1335.59 1125.01 1360 1056 1360Z" fill="black" fill-opacity="0.3"/>
<path d="M1456 1110V485H1706V610C1775.01 610 1833.93 634.74 1882.76 684.219C1931.59 732.396 1956 790.99 1956 860V1110H1456Z" fill="black" fill-opacity="0.3"/>
<path d="M2106 1110V610C2106 540.99 2130.41 482.07 2179.24 433.242C2227.42 384.414 2286.34 360 2356 360V1110H2106Z" fill="black" fill-opacity="0.3"/>
<path d="M2506 1360V610C2506 540.99 2530.41 482.07 2579.24 433.242C2627.42 384.414 2686.34 360 2756 360V1110C2756 1179.01 2731.26 1237.93 2681.78 1286.76C2633.6 1335.59 2575.01 1360 2506 1360Z" fill="black" fill-opacity="0.3"/>
<path d="M3156 1110C3086.34 1110 3027.09 1085.59 2978.27 1036.76C2930.09 988.581 2906 929.661 2906 860V485H3156V1110Z" fill="black" fill-opacity="0.3"/>
<path d="M3556 1360V1110C3486.34 1110 3427.09 1085.59 3378.27 1036.76C3330.09 988.581 3306 929.661 3306 860V610H3806V1110C3806 1179.01 3781.26 1237.93 3731.78 1286.76C3683.6 1335.59 3625.01 1360 3556 1360Z" fill="black" fill-opacity="0.3"/>
<path d="M256 1000C186.339 1000 127.094 975.586 78.2656 926.758C30.0885 878.581 6 819.661 6 750V375H256V1000Z" fill="black"/>
<path d="M406 1000V500H656V1000H406ZM531 500C496.495 500 466.872 487.956 442.133 463.867C418.044 439.128 406 409.505 406 375C406 341.146 418.044 311.849 442.133 287.109C466.872 262.37 496.495 250 531 250C564.854 250 594.151 262.37 618.891 287.109C643.63 311.849 656 341.146 656 375C656 409.505 643.63 439.128 618.891 463.867C594.151 487.956 564.854 500 531 500Z" fill="black"/>
<path d="M1056 1250V1000C986.339 1000 927.094 975.586 878.266 926.758C830.089 878.581 806 819.661 806 750C806 680.99 830.414 622.07 879.242 573.242C927.419 524.414 986.339 500 1056 500C1125.01 500 1183.93 524.74 1232.76 574.219C1281.59 622.396 1306 680.99 1306 750V1000C1306 1069.01 1281.26 1127.93 1231.78 1176.76C1183.6 1225.59 1125.01 1250 1056 1250Z" fill="black"/>
<path d="M1456 1000V375H1706V500C1775.01 500 1833.93 524.74 1882.76 574.219C1931.59 622.396 1956 680.99 1956 750V1000H1456Z" fill="black"/>
<path d="M2106 1000V500C2106 430.99 2130.41 372.07 2179.24 323.242C2227.42 274.414 2286.34 250 2356 250V1000H2106Z" fill="black"/>
<path d="M2506 1250V500C2506 430.99 2530.41 372.07 2579.24 323.242C2627.42 274.414 2686.34 250 2756 250V1000C2756 1069.01 2731.26 1127.93 2681.78 1176.76C2633.6 1225.59 2575.01 1250 2506 1250Z" fill="black"/>
<path d="M3156 1000C3086.34 1000 3027.09 975.586 2978.27 926.758C2930.09 878.581 2906 819.661 2906 750V375H3156V1000Z" fill="black"/>
<path d="M3556 1250V1000C3486.34 1000 3427.09 975.586 3378.27 926.758C3330.09 878.581 3306 819.661 3306 750V500H3806V1000C3806 1069.01 3781.26 1127.93 3731.78 1176.76C3683.6 1225.59 3625.01 1250 3556 1250Z" fill="black"/>
</svg>
