<svg width="16" height="15" viewBox="0 0 16 15" fill="none" xmlns="http://www.w3.org/2000/svg">
<path d="M7.56698 0C3.4365 0 0.0595703 3.37359 0.0595703 7.5C0.0595703 11.6264 3.4365 15 7.56698 15C11.6975 15 15.0744 11.6264 15.0744 7.5C15.0744 3.37359 11.7336 0 7.56698 0ZM11.0204 10.8375C10.8707 11.062 10.607 11.1375 10.3823 10.9861C8.61802 9.9 6.4038 9.675 3.77433 10.2736C3.51298 10.3509 3.28776 10.1634 3.21174 9.93609C3.13855 9.675 3.32436 9.45047 3.54911 9.375C6.4038 8.7375 8.88172 8.99859 10.8318 10.2C11.0959 10.3125 11.1325 10.6125 11.0204 10.8375ZM11.9217 8.77453C11.7336 9.03844 11.3962 9.15094 11.1321 8.9625C9.10647 7.72453 6.02702 7.35141 3.66407 8.10047C3.3633 8.17359 3.02359 8.025 2.95039 7.72406C2.87485 7.42406 3.02359 7.08703 3.32436 7.01156C6.06644 6.18609 9.44336 6.60094 11.7702 8.02453C11.9973 8.13703 12.1099 8.51297 11.9217 8.77453ZM11.9978 6.675C9.59304 5.24859 5.57752 5.1 3.28776 5.81297C2.91192 5.925 2.53749 5.70047 2.42487 5.36109C2.31273 4.9875 2.53749 4.61156 2.87485 4.49906C5.54139 3.71109 9.93229 3.86203 12.7114 5.51203C13.0488 5.7 13.1605 6.14953 12.9728 6.48656C12.7846 6.75047 12.3347 6.86203 11.9973 6.67453L11.9978 6.675Z" fill="white"/>
</svg>
