<svg width="160" height="160" viewBox="0 0 160 160" fill="none" xmlns="http://www.w3.org/2000/svg">
<rect width="160" height="160" fill="#505050"/>
<path d="M80 40C75.0555 40 70.222 41.4662 66.1108 44.2133C61.9995 46.9603 58.7952 50.8648 56.903 55.4329C55.0108 60.0011 54.5157 65.0277 55.4804 69.8773C56.445 74.7268 58.826 79.1814 62.3223 82.6777C65.8187 86.174 70.2732 88.555 75.1228 89.5196C79.9723 90.4843 84.999 89.9892 89.5671 88.097C94.1353 86.2048 98.0397 83.0005 100.787 78.8893C103.534 74.778 105 69.9445 105 65C105 58.3696 102.366 52.0107 97.6777 47.3223C92.9893 42.6339 86.6304 40 80 40ZM80 80C77.0333 80 74.1332 79.1203 71.6665 77.472C69.1997 75.8238 67.2771 73.4811 66.1418 70.7403C65.0065 67.9994 64.7095 64.9834 65.2882 62.0736C65.867 59.1639 67.2956 56.4912 69.3934 54.3934C71.4912 52.2956 74.1639 50.867 77.0737 50.2882C79.9834 49.7094 82.9994 50.0065 85.7403 51.1418C88.4812 52.2771 90.8238 54.1997 92.4721 56.6664C94.1203 59.1332 95 62.0333 95 65C94.996 68.977 93.4144 72.79 90.6022 75.6022C87.79 78.4144 83.977 79.996 80 80Z" fill="white"/>
<path d="M80 10C66.1553 10 52.6216 14.1054 41.1101 21.7971C29.5987 29.4888 20.6266 40.4213 15.3285 53.2122C10.0303 66.003 8.6441 80.0777 11.3451 93.6563C14.046 107.235 20.7129 119.708 30.5026 129.497C40.2922 139.287 52.765 145.954 66.3437 148.655C79.9224 151.356 93.997 149.97 106.788 144.672C119.579 139.373 130.511 130.401 138.203 118.89C145.895 107.378 150 93.8447 150 80C149.979 61.4413 142.597 43.6489 129.474 30.5259C116.351 17.403 98.5587 10.0212 80 10V10ZM50 131.885V125C50.004 121.023 51.5856 117.21 54.3978 114.398C57.21 111.586 61.023 110.004 65 110H95C98.9771 110.004 102.79 111.586 105.602 114.398C108.414 117.21 109.996 121.023 110 125V131.885C100.896 137.201 90.5426 140.002 80 140.002C69.4575 140.002 59.1042 137.201 50 131.885V131.885ZM119.96 124.63C119.86 118.072 117.188 111.815 112.52 107.208C107.851 102.601 101.559 100.012 95 100H65C58.4409 100.012 52.1492 102.601 47.4805 107.208C42.8117 111.815 40.1397 118.072 40.04 124.63C30.9729 116.534 24.5787 105.874 21.7042 94.0633C18.8297 82.2523 19.6105 69.8467 23.9432 58.4893C28.2759 47.1319 35.9561 37.3583 45.9669 30.4628C55.9776 23.5673 67.8467 19.8751 80.0025 19.8751C92.1583 19.8751 104.027 23.5673 114.038 30.4628C124.049 37.3583 131.729 47.1319 136.062 58.4893C140.395 69.8467 141.175 82.2523 138.301 94.0633C135.426 105.874 129.032 116.534 119.965 124.63H119.96Z" fill="white"/>
</svg>
