<svg width="22" height="22" viewBox="0 0 22 22" fill="none" xmlns="http://www.w3.org/2000/svg">
<path d="M14.5233 3.06486L13.2143 3.78078L14.5233 4.49669L15.2393 5.80569L15.9552 4.49669L17.2642 3.78078L15.9552 3.06486L15.2393 1.75586L14.5233 3.06486ZM9.54401 3.81103C8.34346 4.05462 7.22306 4.59509 6.28512 5.38307C5.34718 6.17105 4.62158 7.18145 4.17457 8.32199C3.72757 9.46254 3.5734 10.6969 3.72616 11.9123C3.87891 13.1278 4.33372 14.2856 5.04904 15.2801C5.76436 16.2745 6.71742 17.074 7.82117 17.6054C8.92493 18.1368 10.1442 18.3832 11.3677 18.3221C12.5912 18.2611 13.7799 17.8945 14.8253 17.2559C15.8707 16.6173 16.7394 15.7269 17.3522 14.6662C15.1753 14.6493 13.0933 13.7726 11.56 12.2273C10.0267 10.6819 9.16628 8.59316 9.16634 6.41619C9.16634 5.51786 9.28642 4.64061 9.54401 3.81103ZM1.83301 10.9995C1.83301 5.93678 5.93692 1.83286 10.9997 1.83286H12.5892L11.7935 3.20786C11.2628 4.12453 10.9997 5.21536 10.9997 6.41619C10.9995 7.36367 11.2092 8.29943 11.6137 9.15625C12.0181 10.0131 12.6073 10.7697 13.3389 11.3717C14.0705 11.9738 14.9264 12.4064 15.845 12.6384C16.7636 12.8704 17.7223 12.8961 18.652 12.7137L20.1938 12.4139L19.6961 13.9044C18.4815 17.5418 15.0486 20.1662 10.9997 20.1662C5.93692 20.1662 1.83301 16.0623 1.83301 10.9995ZM18.7913 5.88086L19.6292 7.41169L21.16 8.24953L19.6292 9.08736L18.7913 10.6182L17.9535 9.08736L16.4227 8.24953L17.9535 7.41169L18.7913 5.88086Z" fill="white"/>
</svg>
