<svg width="22" height="22" viewBox="0 0 22 22" fill="none" xmlns="http://www.w3.org/2000/svg">
<g clip-path="url(#clip0_3716_2733)">
<path d="M10.9998 13.7493C11.7637 13.7493 12.413 13.482 12.9478 12.9473C13.4825 12.4125 13.7498 11.7632 13.7498 10.9993C13.7498 10.2355 13.4825 9.58615 12.9478 9.05143C12.413 8.51671 11.7637 8.24935 10.9998 8.24935C10.2359 8.24935 9.58664 8.51671 9.05192 9.05143C8.5172 9.58615 8.24984 10.2355 8.24984 10.9993C8.24984 11.7632 8.5172 12.4125 9.05192 12.9473C9.58664 13.482 10.2359 13.7493 10.9998 13.7493ZM10.9998 15.5827C9.73178 15.5827 8.65103 15.1357 7.75759 14.2416C6.86414 13.3475 6.41711 12.2668 6.4165 10.9993C6.4165 9.73129 6.86353 8.65054 7.75759 7.7571C8.65164 6.86365 9.73239 6.41663 10.9998 6.41602C12.2679 6.41602 13.3489 6.86304 14.243 7.7571C15.1371 8.65115 15.5838 9.7319 15.5832 10.9993C15.5832 12.2674 15.1361 13.3485 14.2421 14.2425C13.348 15.1366 12.2673 15.5833 10.9998 15.5827ZM1.83317 11.916C1.57345 11.916 1.35589 11.828 1.1805 11.652C1.00511 11.476 0.917115 11.2585 0.916504 10.9993C0.916504 10.7396 1.0045 10.5221 1.1805 10.3467C1.3565 10.1713 1.57406 10.0833 1.83317 10.0827H3.6665C3.92623 10.0827 4.14409 10.1707 4.32009 10.3467C4.49609 10.5227 4.58378 10.7402 4.58317 10.9993C4.58317 11.2591 4.49517 11.4769 4.31917 11.6529C4.14317 11.8289 3.92561 11.9166 3.6665 11.916H1.83317ZM18.3332 11.916C18.0734 11.916 17.8559 11.828 17.6805 11.652C17.5051 11.476 17.4171 11.2585 17.4165 10.9993C17.4165 10.7396 17.5045 10.5221 17.6805 10.3467C17.8565 10.1713 18.0741 10.0833 18.3332 10.0827H20.1665C20.4262 10.0827 20.6441 10.1707 20.8201 10.3467C20.9961 10.5227 21.0838 10.7402 21.0832 10.9993C21.0832 11.2591 20.9952 11.4769 20.8192 11.6529C20.6432 11.8289 20.4256 11.9166 20.1665 11.916H18.3332ZM10.9998 4.58268C10.7401 4.58268 10.5226 4.49468 10.3472 4.31868C10.1718 4.14268 10.0838 3.92513 10.0832 3.66602V1.83268C10.0832 1.57296 10.1712 1.3554 10.3472 1.18002C10.5232 1.00463 10.7407 0.916627 10.9998 0.916016C11.2596 0.916016 11.4774 1.00402 11.6534 1.18002C11.8294 1.35602 11.9171 1.57357 11.9165 1.83268V3.66602C11.9165 3.92574 11.8285 4.1436 11.6525 4.3196C11.4765 4.4956 11.2589 4.58329 10.9998 4.58268ZM10.9998 21.0827C10.7401 21.0827 10.5226 20.9947 10.3472 20.8187C10.1718 20.6427 10.0838 20.4251 10.0832 20.166V18.3327C10.0832 18.073 10.1712 17.8554 10.3472 17.68C10.5232 17.5046 10.7407 17.4166 10.9998 17.416C11.2596 17.416 11.4774 17.504 11.6534 17.68C11.8294 17.856 11.9171 18.0736 11.9165 18.3327V20.166C11.9165 20.4257 11.8285 20.6436 11.6525 20.8196C11.4765 20.9956 11.2589 21.0833 10.9998 21.0827ZM5.179 6.46185L4.19359 5.49935C4.01025 5.33129 3.92225 5.1174 3.92959 4.85768C3.93692 4.59796 4.02492 4.37643 4.19359 4.1931C4.37692 4.00977 4.59845 3.9181 4.85817 3.9181C5.11789 3.9181 5.33178 4.00977 5.49984 4.1931L6.46234 5.17852C6.63039 5.36185 6.71442 5.57574 6.71442 5.82018C6.71442 6.06463 6.63039 6.27852 6.46234 6.46185C6.29428 6.64518 6.08436 6.73318 5.83259 6.72585C5.58081 6.71852 5.36295 6.63052 5.179 6.46185ZM16.4998 17.8056L15.5373 16.8202C15.3693 16.6368 15.2853 16.4193 15.2853 16.1675C15.2853 15.9157 15.3693 15.7055 15.5373 15.5368C15.7054 15.3535 15.9156 15.2658 16.168 15.2738C16.4204 15.2817 16.6379 15.3694 16.8207 15.5368L17.8061 16.4993C17.9894 16.6674 18.0774 16.8813 18.0701 17.141C18.0628 17.4007 17.9748 17.6223 17.8061 17.8056C17.6228 17.9889 17.4012 18.0806 17.1415 18.0806C16.8818 18.0806 16.6679 17.9889 16.4998 17.8056ZM15.5373 6.46185C15.354 6.29379 15.266 6.08388 15.2733 5.8321C15.2807 5.58032 15.3687 5.36246 15.5373 5.17852L16.4998 4.1931C16.6679 4.00977 16.8818 3.92177 17.1415 3.9291C17.4012 3.93643 17.6228 4.02443 17.8061 4.1931C17.9894 4.37643 18.0811 4.59796 18.0811 4.85768C18.0811 5.1174 17.9894 5.33129 17.8061 5.49935L16.8207 6.46185C16.6373 6.6299 16.4234 6.71393 16.179 6.71393C15.9346 6.71393 15.7207 6.6299 15.5373 6.46185ZM4.19359 17.8056C4.01025 17.6223 3.91859 17.4007 3.91859 17.141C3.91859 16.8813 4.01025 16.6674 4.19359 16.4993L5.179 15.5368C5.36234 15.3688 5.57989 15.2848 5.83167 15.2848C6.08345 15.2848 6.29367 15.3688 6.46234 15.5368C6.64567 15.7049 6.73367 15.9151 6.72634 16.1675C6.719 16.4199 6.631 16.6375 6.46234 16.8202L5.49984 17.8056C5.33178 17.9889 5.11789 18.0769 4.85817 18.0696C4.59845 18.0623 4.37692 17.9743 4.19359 17.8056Z" fill="black"/>
</g>
<defs>
<clipPath id="clip0_3716_2733">
<rect width="22" height="22" fill="white"/>
</clipPath>
</defs>
</svg>
