<svg width="45" height="45" viewBox="0 0 45 45" fill="none" xmlns="http://www.w3.org/2000/svg">
<path d="M37.8333 3H6.16667C4.41777 3 3 4.41777 3 6.16667V37.8333C3 39.5822 4.41777 41 6.16667 41H37.8333C39.5822 41 41 39.5822 41 37.8333V6.16667C41 4.41777 39.5822 3 37.8333 3Z" stroke="#121315" stroke-width="3" stroke-linejoin="round"/>
<path d="M3 25.8909L14.2871 15.5542C14.6675 15.2059 15.1625 15.0088 15.6784 15.0003C16.1944 14.9917 16.6957 15.1723 17.0874 15.5078L30.4444 26.9455M26.2222 21.6727L31.2604 16.6394C31.6197 16.2801 32.0968 16.0625 32.6039 16.0265C33.111 15.9904 33.614 16.1384 34.0207 16.4432L41 21.6727M3 17.4545V28M41 17.4545V28" stroke="#121315" stroke-width="3" stroke-linecap="round" stroke-linejoin="round"/>
</svg>
