<svg width="45" height="45" viewBox="0 0 45 45" fill="none" xmlns="http://www.w3.org/2000/svg">
<path d="M7.5 37.5C6.46875 37.5 5.58625 37.1331 4.8525 36.3994C4.1175 35.6644 3.75 34.7812 3.75 33.75V11.25C3.75 10.2187 4.1175 9.33625 4.8525 8.6025C5.58625 7.8675 6.46875 7.5 7.5 7.5H18.75L22.5 11.25H37.5C38.5312 11.25 39.4144 11.6175 40.1494 12.3525C40.8831 13.0862 41.25 13.9687 41.25 15H20.9531L17.2031 11.25H7.5V33.75L12 18.75H44.0625L39.2344 34.8281C38.9844 35.6406 38.5238 36.2894 37.8525 36.7744C37.18 37.2581 36.4375 37.5 35.625 37.5H7.5ZM11.4375 33.75H35.625L39 22.5H14.8125L11.4375 33.75ZM11.4375 33.75L14.8125 22.5L11.4375 33.75ZM7.5 15V11.25V15Z" fill="#121315"/>
</svg>
