<svg width="45" height="45" viewBox="0 0 45 45" fill="none" xmlns="http://www.w3.org/2000/svg">
<path fill-rule="evenodd" clip-rule="evenodd" d="M39.375 12.6562V39.375C39.375 40.8668 38.7824 42.2976 37.7275 43.3525C36.6726 44.4074 35.2418 45 33.75 45V42.1875C34.4959 42.1875 35.2113 41.8912 35.7387 41.3637C36.2662 40.8363 36.5625 40.1209 36.5625 39.375V12.6562H30.9375C29.8186 12.6562 28.7456 12.2118 27.9544 11.4206C27.1632 10.6294 26.7188 9.55638 26.7188 8.4375V2.8125H11.25C10.5041 2.8125 9.78871 3.10882 9.26126 3.63626C8.73382 4.16371 8.4375 4.87908 8.4375 5.625V30.9375H5.625V5.625C5.625 4.13316 6.21763 2.70242 7.27252 1.64752C8.32742 0.592632 9.75816 0 11.25 0L26.7188 0L39.375 12.6562ZM5.0175 44.5753L7.10156 36.7313H7.19438L9.27563 44.5753H11.3287L14.2959 33.3281H11.8828L10.2094 41.4928H10.0941L8.10844 33.3281H6.1875L4.20187 41.4928H4.095L2.4075 33.3281H0L2.96719 44.5753H5.02031H5.0175ZM15.4659 44.5753L16.3491 41.6841H20.1066L20.9869 44.5753H23.3522L19.5947 33.3281H16.9903L13.2187 44.5753H15.4688H15.4659ZM18.2841 35.4797L19.6622 40.0275H16.8103L18.1884 35.4797H18.2812H18.2841ZM28.4203 44.5753H25.7428L21.9769 33.3281H24.5559L27.0788 42.1538H27.1856L29.6831 33.3281H32.1553L28.4203 44.5753Z" fill="#121315"/>
</svg>
