<svg width="16" height="15" viewBox="0 0 16 15" fill="none" xmlns="http://www.w3.org/2000/svg">
<path d="M9.8864 0H5.27685C1.0702 0 0.0742188 0.995 0.0742188 5.1975V9.8025C0.0742188 14.005 1.0702 15 5.27685 15H9.8864C14.0931 15 15.089 14.005 15.089 9.8025V5.1975C15.089 0.995 14.0824 0 9.8864 0ZM12.1962 10.7019H11.1051C10.6922 10.7019 10.5646 10.3737 9.82259 9.6225C9.17633 8.9975 8.89042 8.91313 8.73151 8.91313C8.50879 8.91313 8.44498 8.97688 8.44498 9.28375V10.2681C8.44498 10.5331 8.36052 10.6919 7.66108 10.6919C6.50619 10.6919 5.22368 9.99312 4.32341 8.69063C2.96707 6.78562 2.59546 5.35625 2.59546 5.06C2.59546 4.90125 2.65927 4.75313 2.96645 4.75313H4.05753C4.3328 4.75313 4.43915 4.88 4.54551 5.17625C5.08542 6.7325 5.9863 8.09812 6.3573 8.09812C6.49493 8.09812 6.55874 8.03438 6.55874 7.68563V6.07562C6.5162 5.33437 6.12394 5.27125 6.12394 5.00688C6.12394 4.87937 6.2303 4.7525 6.39921 4.7525H8.11591C8.34926 4.7525 8.43372 4.87937 8.43372 5.15438V7.325C8.43372 7.5575 8.54008 7.6425 8.60326 7.6425C8.7409 7.6425 8.85789 7.5575 9.11189 7.30375C9.89641 6.425 10.4576 5.07 10.4576 5.07C10.532 4.91125 10.659 4.76312 10.9349 4.76312H12.026C12.3545 4.76312 12.4289 4.93187 12.3545 5.165C12.2168 5.80062 10.8818 7.68437 10.8818 7.68437C10.7654 7.875 10.7229 7.95937 10.8818 8.17188C10.9981 8.33062 11.3798 8.65875 11.6344 8.955C12.1005 9.48438 12.4602 9.92875 12.5559 10.2362C12.6623 10.5425 12.5027 10.7013 12.1956 10.7013L12.1962 10.7019Z" fill="white"/>
</svg>
