<svg width="16" height="15" viewBox="0 0 16 15" fill="none" xmlns="http://www.w3.org/2000/svg">
<path fill-rule="evenodd" clip-rule="evenodd" d="M7.53671 0C3.38886 0 0.0292969 3.44114 0.0292969 7.6897C0.0292969 11.0924 2.17829 13.9664 5.16249 14.9853C5.53786 15.0526 5.67862 14.8219 5.67862 14.62C5.67862 14.4374 5.66924 13.8319 5.66924 13.1878C3.783 13.5435 3.29502 12.7168 3.14487 12.2843C3.06041 12.0632 2.69443 11.3808 2.37536 11.1981C2.1126 11.0539 1.73723 10.6983 2.36598 10.6887C2.95719 10.6791 3.37948 11.2462 3.52024 11.4769C4.19591 12.64 5.2751 12.3131 5.70678 12.1113C5.77247 11.6115 5.96954 11.275 6.18537 11.0828C4.51498 10.8905 2.7695 10.2273 2.7695 7.28599C2.7695 6.44974 3.06041 5.75767 3.53901 5.21939C3.46394 5.02714 3.20118 4.23895 3.61409 3.18162C3.61409 3.18162 4.24283 2.97976 5.67862 3.96981C6.27922 3.79679 6.91735 3.71028 7.55548 3.71028C8.19361 3.71028 8.83174 3.79679 9.43233 3.96981C10.8681 2.97015 11.4969 3.18162 11.4969 3.18162C11.9098 4.23895 11.647 5.02714 11.5719 5.21939C12.0505 5.75767 12.3415 6.44013 12.3415 7.28599C12.3415 10.2369 10.5866 10.8905 8.91619 11.0828C9.18834 11.3231 9.42295 11.7845 9.42295 12.5054C9.42295 13.5339 9.41356 14.3605 9.41356 14.62C9.41356 14.8219 9.55432 15.0622 9.9297 14.9853C11.42 14.4699 12.7151 13.4888 13.6325 12.1801C14.55 10.8714 15.0437 9.30088 15.0441 7.6897C15.0441 3.44114 11.6846 0 7.53671 0Z" fill="white"/>
</svg>
