<svg width="16" height="15" viewBox="0 0 16 15" fill="none" xmlns="http://www.w3.org/2000/svg">
<path fill-rule="evenodd" clip-rule="evenodd" d="M4.42696 0.045C5.22752 0.00818181 5.48277 0 7.52206 0C9.56134 0 9.8166 0.00886363 10.6165 0.045C11.4164 0.0811364 11.9623 0.208636 12.4401 0.393409C12.9404 0.582273 13.3942 0.8775 13.7696 1.25932C14.1518 1.63364 14.4466 2.08636 14.635 2.58682C14.8206 3.06409 14.9476 3.60955 14.9844 4.40727C15.0213 5.20841 15.0295 5.46341 15.0295 7.5C15.0295 9.53727 15.0206 9.79227 14.9844 10.592C14.9483 11.3898 14.8206 11.9352 14.635 12.4125C14.4466 12.913 14.1513 13.3665 13.7696 13.7414C13.3942 14.1232 12.9404 14.4177 12.4401 14.6059C11.9623 14.7914 11.4164 14.9182 10.6178 14.955C9.8166 14.9918 9.56134 15 7.52206 15C5.48277 15 5.22752 14.9911 4.42696 14.955C3.62844 14.9189 3.08245 14.7914 2.60471 14.6059C2.1037 14.4177 1.64978 14.1227 1.27453 13.7414C0.892592 13.3668 0.597029 12.9136 0.408446 12.4132C0.223491 11.9359 0.0965474 11.3905 0.0596929 10.5927C0.0228383 9.79159 0.0146484 9.53659 0.0146484 7.5C0.0146484 5.46273 0.0235208 5.20773 0.0596929 4.40864C0.095865 3.60955 0.223491 3.06409 0.408446 2.58682C0.597307 2.08642 0.893096 1.63317 1.27521 1.25864C1.64993 0.87716 2.1034 0.581893 2.60402 0.393409C3.08177 0.208636 3.62776 0.0818182 4.42628 0.045H4.42696ZM10.5557 1.395C9.76404 1.35886 9.52654 1.35136 7.52206 1.35136C5.51758 1.35136 5.28007 1.35886 4.48838 1.395C3.75607 1.42841 3.35886 1.55045 3.09405 1.65341C2.74393 1.78977 2.49346 1.95136 2.2307 2.21386C1.98162 2.45594 1.78993 2.75065 1.66969 3.07636C1.56663 3.34091 1.44447 3.73773 1.41103 4.46932C1.37485 5.26023 1.36735 5.4975 1.36735 7.5C1.36735 9.5025 1.37485 9.73977 1.41103 10.5307C1.44447 11.2623 1.56663 11.6591 1.66969 11.9236C1.78981 12.2489 1.98159 12.5441 2.2307 12.7861C2.47298 13.035 2.7685 13.2266 3.09405 13.3466C3.35886 13.4495 3.75607 13.5716 4.48838 13.605C5.28007 13.6411 5.5169 13.6486 7.52206 13.6486C9.52722 13.6486 9.76404 13.6411 10.5557 13.605C11.288 13.5716 11.6853 13.4495 11.9501 13.3466C12.3002 13.2102 12.5507 13.0486 12.8134 12.7861C13.0625 12.5441 13.2543 12.2489 13.3744 11.9236C13.4775 11.6591 13.5996 11.2623 13.6331 10.5307C13.6693 9.73977 13.6768 9.5025 13.6768 7.5C13.6768 5.4975 13.6693 5.26023 13.6331 4.46932C13.5996 3.73773 13.4775 3.34091 13.3744 3.07636C13.2379 2.72659 13.0762 2.47636 12.8134 2.21386C12.5711 1.96505 12.2761 1.77355 11.9501 1.65341C11.6853 1.55045 11.288 1.42841 10.5557 1.395ZM6.56316 9.81205C7.09868 10.0347 7.69499 10.0648 8.25023 9.89708C8.80547 9.72936 9.2852 9.37426 9.60749 8.89244C9.92977 8.41062 10.0746 7.83196 10.0173 7.2553C9.95995 6.67864 9.70399 6.13975 9.29313 5.73068C9.03121 5.46919 8.71452 5.26896 8.36585 5.14442C8.01717 5.01987 7.6452 4.97411 7.2767 5.01042C6.9082 5.04673 6.55234 5.16421 6.23475 5.35441C5.91715 5.5446 5.64571 5.80278 5.43998 6.11035C5.23425 6.41793 5.09934 6.76724 5.04497 7.13316C4.99059 7.49907 5.0181 7.87247 5.12552 8.22649C5.23293 8.5805 5.41758 8.90633 5.66617 9.18049C5.91476 9.45466 6.22111 9.67035 6.56316 9.81205ZM4.79346 4.77409C5.15178 4.41612 5.57718 4.13216 6.04535 3.93843C6.51352 3.7447 7.01531 3.64498 7.52206 3.64498C8.02881 3.64498 8.53059 3.7447 8.99877 3.93843C9.46694 4.13216 9.89234 4.41612 10.2507 4.77409C10.609 5.13206 10.8932 5.55704 11.0871 6.02475C11.2811 6.49246 11.3809 6.99375 11.3809 7.5C11.3809 8.00625 11.2811 8.50754 11.0871 8.97525C10.8932 9.44296 10.609 9.86794 10.2507 10.2259C9.52699 10.9489 8.54548 11.355 7.52206 11.355C6.49863 11.355 5.51713 10.9489 4.79346 10.2259C4.06979 9.50295 3.66323 8.52241 3.66323 7.5C3.66323 6.47759 4.06979 5.49705 4.79346 4.77409ZM12.2367 4.21909C12.3255 4.13541 12.3966 4.03478 12.4458 3.92316C12.4949 3.81155 12.5212 3.69121 12.523 3.56927C12.5247 3.44734 12.502 3.32628 12.4561 3.21328C12.4102 3.10028 12.3421 2.99762 12.2558 2.91139C12.1695 2.82516 12.0667 2.75711 11.9536 2.71126C11.8405 2.66542 11.7193 2.64271 11.5973 2.64449C11.4752 2.64627 11.3548 2.67249 11.243 2.72161C11.1313 2.77073 11.0306 2.84175 10.9468 2.93045C10.7839 3.10297 10.6947 3.33213 10.6982 3.56927C10.7016 3.80641 10.7975 4.03287 10.9653 4.20057C11.1332 4.36828 11.3599 4.46402 11.5973 4.46748C11.8346 4.47093 12.064 4.38183 12.2367 4.21909Z" fill="white"/>
</svg>
