<svg width="15" height="15" viewBox="0 0 15 15" fill="none" xmlns="http://www.w3.org/2000/svg">
<g clip-path="url(#clip0_2804_1785)">
<path d="M7.82808 0.0125C8.64683 0 9.45933 0.00625 10.2718 0C10.3218 0.95625 10.6656 1.93125 11.3656 2.60625C12.0656 3.3 13.0531 3.61875 14.0156 3.725V6.24375C13.1156 6.2125 12.2093 6.025 11.3906 5.6375C11.0343 5.475 10.7031 5.26875 10.3781 5.05625C10.3718 6.88125 10.3843 8.70625 10.3656 10.525C10.3156 11.4 10.0281 12.2688 9.52183 12.9875C8.70308 14.1875 7.28433 14.9687 5.82808 14.9937C4.93433 15.0437 4.04058 14.8 3.27808 14.35C2.01558 13.6062 1.12808 12.2437 0.996828 10.7812C0.984328 10.4688 0.978078 10.1563 0.990578 9.85C1.10308 8.6625 1.69058 7.525 2.60308 6.75C3.64058 5.85 5.09058 5.41875 6.44683 5.675C6.45933 6.6 6.42183 7.525 6.42183 8.45C5.80308 8.25 5.07808 8.30625 4.53433 8.68125C4.14058 8.9375 3.84058 9.33125 3.68433 9.775C3.55308 10.0938 3.59058 10.4437 3.59683 10.7812C3.74683 11.8062 4.73433 12.6688 5.78433 12.575C6.48433 12.5688 7.15308 12.1625 7.51558 11.5688C7.63433 11.3625 7.76558 11.15 7.77183 10.9063C7.83433 9.7875 7.80933 8.675 7.81558 7.55625C7.82183 5.0375 7.80933 2.525 7.82808 0.0125Z" fill="white"/>
</g>
<defs>
<clipPath id="clip0_2804_1785">
<rect width="15" height="15" fill="white"/>
</clipPath>
</defs>
</svg>
