<svg width="1000" height="1000" viewBox="0 0 1000 1000" fill="none" xmlns="http://www.w3.org/2000/svg">
<rect width="1000" height="1000" rx="285" fill="url(#paint0_linear_472_231)"/>
<g filter="url(#filter0_d_472_231)">
<path d="M160.513 599.361C146.159 599.361 133.952 594.319 123.891 584.232C113.963 574.28 109 562.11 109 547.721V470.262H160.513V599.361Z" fill="white" fill-opacity="0.2"/>
<path d="M191.421 599.361V496.082H242.934V599.361H191.421Z" fill="white" fill-opacity="0.2"/>
<path d="M325.355 651V599.361C311.001 599.361 298.794 594.319 288.733 584.232C278.806 574.28 273.842 562.11 273.842 547.721C273.842 533.467 278.873 521.296 288.934 511.211C298.861 501.125 311.001 496.082 325.355 496.082C339.575 496.082 351.716 501.192 361.777 511.412C371.839 521.364 376.868 533.467 376.868 547.721V599.361C376.868 613.615 371.771 625.786 361.575 635.872C351.648 645.958 339.575 651 325.355 651Z" fill="white" fill-opacity="0.2"/>
<path d="M407.776 599.361V470.262H459.289V496.082C473.509 496.082 485.65 501.192 495.711 511.412C505.773 521.364 510.803 533.467 510.803 547.721V599.361H407.776Z" fill="white" fill-opacity="0.2"/>
<path d="M541.711 599.361V496.082C541.711 481.827 546.74 469.657 556.802 459.571C566.729 449.486 578.87 444.443 593.224 444.443V599.361H541.711Z" fill="white" fill-opacity="0.2"/>
<path d="M624.132 651V496.082C624.132 481.827 629.161 469.657 639.223 459.571C649.15 449.486 661.291 444.443 675.645 444.443V599.361C675.645 613.615 670.547 625.786 660.351 635.872C650.424 645.958 638.351 651 624.132 651Z" fill="white" fill-opacity="0.2"/>
<path d="M758.066 599.361C743.712 599.361 731.504 594.319 721.444 584.232C711.517 574.28 706.553 562.11 706.553 547.721V470.262H758.066V599.361Z" fill="white" fill-opacity="0.2"/>
<path d="M840.487 651V599.361C826.133 599.361 813.925 594.319 803.865 584.232C793.938 574.28 788.974 562.11 788.974 547.721V496.082H892V599.361C892 613.615 886.902 625.786 876.707 635.872C866.779 645.958 854.707 651 840.487 651Z" fill="white" fill-opacity="0.2"/>
<path d="M160.513 576.639C146.159 576.639 133.952 571.597 123.891 561.511C113.963 551.559 109 539.389 109 525V447.541H160.513V576.639Z" fill="white" fill-opacity="0.3"/>
<path d="M191.421 576.639V473.361H242.934V576.639H191.421Z" fill="white" fill-opacity="0.3"/>
<path d="M325.355 628.279V576.639C311.001 576.639 298.794 571.597 288.733 561.511C278.806 551.559 273.842 539.389 273.842 525C273.842 510.745 278.873 498.575 288.934 488.489C298.861 478.404 311.001 473.361 325.355 473.361C339.575 473.361 351.716 478.471 361.777 488.691C371.839 498.642 376.868 510.745 376.868 525V576.639C376.868 590.894 371.771 603.064 361.575 613.15C351.648 623.237 339.575 628.279 325.355 628.279Z" fill="white" fill-opacity="0.3"/>
<path d="M407.776 576.639V447.541H459.289V473.361C473.509 473.361 485.65 478.471 495.711 488.691C505.773 498.642 510.803 510.745 510.803 525V576.639H407.776Z" fill="white" fill-opacity="0.3"/>
<path d="M541.711 576.639V473.361C541.711 459.106 546.74 446.936 556.802 436.85C566.729 426.764 578.87 421.721 593.224 421.721V576.639H541.711Z" fill="white" fill-opacity="0.3"/>
<path d="M624.132 628.279V473.361C624.132 459.106 629.161 446.936 639.223 436.85C649.15 426.764 661.291 421.721 675.645 421.721V576.639C675.645 590.894 670.547 603.064 660.351 613.15C650.424 623.237 638.351 628.279 624.132 628.279Z" fill="white" fill-opacity="0.3"/>
<path d="M758.066 576.639C743.712 576.639 731.504 571.597 721.444 561.511C711.517 551.559 706.553 539.389 706.553 525V447.541H758.066V576.639Z" fill="white" fill-opacity="0.3"/>
<path d="M840.487 628.279V576.639C826.133 576.639 813.925 571.597 803.865 561.511C793.938 551.559 788.974 539.389 788.974 525V473.361H892V576.639C892 590.894 886.902 603.064 876.707 613.15C866.779 623.237 854.707 628.279 840.487 628.279Z" fill="white" fill-opacity="0.3"/>
<path d="M160.513 553.918C146.159 553.918 133.952 548.875 123.891 538.789C113.963 528.838 109 516.668 109 502.279V424.82H160.513V553.918Z" fill="white"/>
<path d="M191.421 553.918V450.639H242.934V553.918H191.421ZM217.178 450.639C210.068 450.639 203.964 448.152 198.866 443.176C193.903 438.066 191.421 431.947 191.421 424.82C191.421 417.827 193.903 411.775 198.866 406.665C203.964 401.555 210.068 399 217.178 399C224.153 399 230.19 401.555 235.288 406.665C240.385 411.775 242.934 417.827 242.934 424.82C242.934 431.947 240.385 438.066 235.288 443.176C230.19 448.152 224.153 450.639 217.178 450.639Z" fill="white"/>
<path d="M325.355 605.557V553.918C311.001 553.918 298.794 548.875 288.733 538.789C278.806 528.838 273.842 516.668 273.842 502.279C273.842 488.024 278.873 475.854 288.934 465.768C298.861 455.682 311.001 450.639 325.355 450.639C339.575 450.639 351.716 455.75 361.777 465.97C371.839 475.921 376.868 488.024 376.868 502.279V553.918C376.868 568.173 371.771 580.343 361.575 590.429C351.648 600.515 339.575 605.557 325.355 605.557Z" fill="white"/>
<path d="M407.776 553.918V424.82H459.289V450.639C473.509 450.639 485.65 455.75 495.711 465.97C505.773 475.921 510.803 488.024 510.803 502.279V553.918H407.776Z" fill="white"/>
<path d="M541.711 553.918V450.639C541.711 436.385 546.74 424.214 556.802 414.129C566.729 404.043 578.87 399 593.224 399V553.918H541.711Z" fill="white"/>
<path d="M624.132 605.557V450.639C624.132 436.385 629.161 424.214 639.223 414.129C649.15 404.043 661.291 399 675.645 399V553.918C675.645 568.173 670.547 580.343 660.351 590.429C650.424 600.515 638.351 605.557 624.132 605.557Z" fill="white"/>
<path d="M758.066 553.918C743.712 553.918 731.504 548.875 721.444 538.789C711.517 528.838 706.553 516.668 706.553 502.279V424.82H758.066V553.918Z" fill="white"/>
<path d="M840.487 605.557V553.918C826.133 553.918 813.925 548.875 803.865 538.789C793.938 528.838 788.974 516.668 788.974 502.279V450.639H892V553.918C892 568.173 886.902 580.343 876.707 590.429C866.779 600.515 854.707 605.557 840.487 605.557Z" fill="white"/>
</g>
<defs>
<filter id="filter0_d_472_231" x="95" y="385" width="811" height="280" filterUnits="userSpaceOnUse" color-interpolation-filters="sRGB">
<feFlood flood-opacity="0" result="BackgroundImageFix"/>
<feColorMatrix in="SourceAlpha" type="matrix" values="0 0 0 0 0 0 0 0 0 0 0 0 0 0 0 0 0 0 127 0" result="hardAlpha"/>
<feOffset/>
<feGaussianBlur stdDeviation="7"/>
<feComposite in2="hardAlpha" operator="out"/>
<feColorMatrix type="matrix" values="0 0 0 0 0 0 0 0 0 0 0 0 0 0 0 0 0 0 0.25 0"/>
<feBlend mode="normal" in2="BackgroundImageFix" result="effect1_dropShadow_472_231"/>
<feBlend mode="normal" in="SourceGraphic" in2="effect1_dropShadow_472_231" result="shape"/>
</filter>
<linearGradient id="paint0_linear_472_231" x1="1191.5" y1="-182.5" x2="-98.0001" y2="1107" gradientUnits="userSpaceOnUse">
<stop offset="0.00277227" stop-color="#222936"/>
<stop offset="0.531259" stop-color="#1C1F26"/>
<stop offset="1" stop-color="#0C0D0F"/>
</linearGradient>
</defs>
</svg>
